<svg xmlns="http://www.w3.org/2000/svg" width="29.124" height="50.157" viewBox="0 0 29.124 50.157">
  <defs>
    <style>
      .cls-1 {
        fill: #fff;
      }
    </style>
  </defs>
  <g id="Group_476" data-name="Group 476" transform="translate(-705.516 -771.484)">
    <path id="Path_360" data-name="Path 360" class="cls-1" d="M19.2,47.12,32.145,60.872a.832.832,0,0,0,1.151.038.851.851,0,0,0,.038-1.15L21.679,47.372H68.348a.809.809,0,1,0,0-1.618H21.679L33.334,33.367a.847.847,0,0,0-.038-1.151.824.824,0,0,0-1.151.038L19.2,46.007a.871.871,0,0,0,0,1.113Z" transform="translate(673.517 840.641) rotate(-90)"/>
  </g>
</svg>
